<?xml version="1.0" standalone="no"?>
<!DOCTYPE svg PUBLIC "-//W3C//DTD SVG 20010904//EN"
 "http://www.w3.org/TR/2001/REC-SVG-20010904/DTD/svg10.dtd">
<svg version="1.0" xmlns="http://www.w3.org/2000/svg"
 width="500.000000pt" height="500.000000pt" viewBox="0 0 500.000000 500.000000"
 preserveAspectRatio="xMidYMid meet">

<g transform="translate(0.000000,500.000000) scale(0.100000,-0.100000)"
fill="#000000" stroke="none">
<path d="M2433 4450 c-93 -13 -222 -61 -309 -115 -146 -91 -285 -257 -353
-420 -169 -404 -143 -871 69 -1291 52 -101 56 -114 44 -135 -22 -40 -17 -130
9 -180 65 -123 241 -147 338 -46 81 84 75 228 -12 301 -41 34 -70 46 -134 55
l-49 6 -46 90 c-52 103 -100 241 -127 365 -25 116 -26 431 -1 540 55 248 186
462 337 554 75 46 220 94 307 102 227 21 434 -132 550 -407 36 -85 74 -220 74
-262 0 -22 8 -27 73 -46 39 -12 82 -26 95 -31 18 -8 22 -6 22 8 0 36 -30 200
-50 272 -29 105 -119 283 -182 360 -172 209 -416 313 -655 280z"/>
<path d="M2260 3554 c-132 -57 -166 -237 -64 -337 46 -46 83 -61 149 -61 74
-1 138 32 174 87 l24 37 112 0 c473 0 957 -277 1145 -657 130 -263 98 -500
-94 -687 -163 -160 -426 -197 -714 -100 l-74 25 -36 -33 c-21 -18 -56 -47 -79
-63 -24 -17 -43 -33 -43 -37 0 -8 149 -62 227 -82 325 -84 663 -2 882 215 126
124 172 235 178 434 4 115 2 141 -21 229 -50 194 -145 346 -323 517 -278 266
-671 419 -1081 419 -82 0 -83 0 -114 36 -17 19 -48 44 -69 55 -46 23 -129 25
-179 3z"/>
<path d="M1434 3072 c-256 -213 -378 -453 -377 -737 2 -352 189 -593 533 -686
119 -33 307 -37 448 -10 308 59 567 190 780 395 116 112 201 220 270 345 26
46 54 86 62 88 113 35 170 105 170 208 0 120 -90 209 -211 209 -111 -1 -196
-80 -206 -191 -4 -51 -1 -65 26 -117 l32 -59 -41 -68 c-51 -86 -141 -199 -211
-265 -169 -158 -414 -298 -624 -356 -99 -28 -334 -35 -432 -14 -227 48 -388
216 -429 449 -36 201 60 429 256 610 l61 57 -24 96 -24 96 -59 -50z"/>
<path d="M2630 1290 c0 -77 -2 -140 -5 -140 -2 0 -19 9 -37 20 -43 26 -128 26
-184 1 -52 -24 -109 -91 -130 -153 -12 -37 -15 -75 -12 -146 3 -84 8 -104 33
-151 42 -76 90 -106 169 -106 63 1 111 19 153 58 22 19 23 19 28 1 15 -46 21
-49 86 -49 l64 0 3 403 2 402 -85 0 -85 0 0 -140z m-30 -235 l30 -16 0 -123 0
-124 -31 -26 c-35 -30 -92 -35 -126 -11 -63 44 -53 265 14 304 26 15 79 13
113 -4z"/>
<path d="M1070 1015 l0 -395 90 0 90 0 0 146 0 145 47 -3 48 -3 72 -125 c40
-69 82 -133 94 -143 17 -13 40 -17 115 -17 52 0 94 3 94 7 0 3 -6 14 -13 22
-7 9 -47 70 -87 136 -41 66 -86 131 -100 144 -15 15 -21 25 -13 28 39 14 93
67 117 114 54 110 22 234 -76 289 -71 40 -132 50 -310 50 l-168 0 0 -395z
m343 244 c38 -20 57 -51 57 -99 0 -83 -48 -120 -155 -120 l-65 0 0 115 0 115
71 0 c39 0 80 -5 92 -11z"/>
<path d="M1862 1172 c-63 -23 -123 -77 -154 -141 -34 -71 -31 -188 8 -267 52
-105 163 -163 291 -151 72 7 151 38 183 72 l22 24 -27 35 c-31 41 -46 44 -106
16 -61 -27 -138 -26 -174 2 -25 20 -55 73 -55 98 0 6 61 10 173 10 121 0 177
4 185 12 30 30 0 167 -50 224 -67 76 -190 104 -296 66z m174 -124 c13 -13 26
-35 29 -50 l7 -28 -105 0 c-58 0 -108 4 -111 9 -8 13 36 74 64 89 34 17 89 8
116 -20z"/>
<path d="M2890 972 c0 -202 1 -210 25 -258 36 -72 81 -99 165 -99 58 0 74 4
118 32 33 20 52 27 52 19 0 -28 36 -46 93 -46 l57 0 0 280 0 280 -85 0 -85 0
0 -203 0 -204 -32 -17 c-21 -11 -48 -16 -73 -14 -34 3 -43 8 -58 38 -15 30
-17 61 -16 215 l1 180 -81 3 -81 3 0 -209z"/>
<path d="M3450 1175 c0 -2 38 -60 85 -129 47 -68 85 -129 85 -135 0 -6 -40
-72 -90 -146 -49 -74 -90 -137 -90 -140 0 -7 145 -6 164 1 8 3 39 46 68 95 29
49 55 89 59 89 4 0 31 -41 60 -90 33 -55 62 -93 74 -96 11 -3 54 -4 96 -2 l76
3 -94 147 -94 147 89 128 90 128 -80 3 c-49 2 -85 -2 -94 -9 -7 -6 -34 -46
-59 -90 -25 -43 -47 -79 -49 -79 -2 0 -23 33 -46 73 -66 111 -60 107 -162 107
-48 0 -88 -2 -88 -5z"/>
</g>
</svg>
