<?xml version="1.0" standalone="no"?>
<!DOCTYPE svg PUBLIC "-//W3C//DTD SVG 20010904//EN"
 "http://www.w3.org/TR/2001/REC-SVG-20010904/DTD/svg10.dtd">
<svg version="1.0" xmlns="http://www.w3.org/2000/svg"
 width="800.000000pt" height="800.000000pt" viewBox="0 0 800.000000 800.000000"
 preserveAspectRatio="xMidYMid meet">

<g transform="translate(0.000000,800.000000) scale(0.100000,-0.100000)"
fill="#000000" stroke="none">
<path d="M5930 4363 c-386 -41 -697 -239 -849 -540 -77 -154 -107 -308 -98
-512 18 -434 231 -733 686 -965 58 -30 207 -98 331 -151 446 -192 546 -262
595 -413 25 -75 17 -190 -17 -257 -52 -102 -170 -179 -319 -211 -90 -19 -283
-14 -374 10 -104 28 -233 98 -312 171 -61 56 -159 175 -199 241 -9 16 -39 1
-312 -157 -166 -95 -302 -179 -302 -184 0 -20 85 -153 150 -236 286 -363 788
-558 1339 -518 572 40 954 308 1078 755 26 92 28 112 28 294 0 172 -3 206 -24
285 -48 188 -148 355 -290 486 -156 145 -355 258 -770 438 -358 156 -460 222
-519 336 -34 67 -42 189 -17 264 50 150 227 239 421 211 148 -21 266 -101 354
-238 31 -48 50 -69 60 -66 24 8 569 358 570 366 1 22 -137 206 -210 279 -138
139 -285 224 -471 273 -152 39 -374 56 -529 39z"/>
<path d="M3600 3053 c0 -764 -4 -1316 -10 -1373 -25 -241 -115 -345 -320 -371
-217 -27 -361 54 -499 279 l-62 101 -282 -171 c-155 -93 -292 -176 -305 -184
l-22 -15 21 -42 c74 -146 212 -312 338 -408 76 -56 190 -118 288 -155 274
-103 693 -103 968 1 344 129 549 397 610 795 12 80 15 315 15 1455 l0 1360
-370 3 -370 2 0 -1277z"/>
</g>
</svg>
