<?xml version="1.0" standalone="no"?>
<!DOCTYPE svg PUBLIC "-//W3C//DTD SVG 20010904//EN"
 "http://www.w3.org/TR/2001/REC-SVG-20010904/DTD/svg10.dtd">
<svg version="1.0" xmlns="http://www.w3.org/2000/svg"
 width="229.000000pt" height="308.000000pt" viewBox="0 0 229.000000 308.000000"
 preserveAspectRatio="xMidYMid meet">

<g transform="translate(0.000000,308.000000) scale(0.100000,-0.100000)"
fill="#000000" stroke="none">
<path d="M980 3074 c-395 -34 -662 -137 -699 -271 -14 -50 -14 -267 0 -318 23
-84 161 -171 350 -218 l94 -24 8 41 c29 143 96 309 168 412 17 26 69 86 115
135 l84 88 0 -626 c0 -359 4 -641 9 -662 6 -20 15 -57 22 -83 6 -26 20 -55 31
-64 18 -17 22 -15 103 69 69 72 88 87 114 87 48 0 232 38 307 64 134 45 228
106 260 167 11 22 14 76 14 251 0 205 -1 221 -15 193 -42 -84 -223 -177 -406
-210 l-37 -7 -4 69 c-3 37 -4 69 -3 70 1 2 44 14 96 27 188 48 305 110 347
184 20 36 22 53 22 196 0 118 -4 164 -14 185 -51 98 -258 189 -516 225 -107
16 -368 27 -450 20z"/>
<path d="M272 2114 c3 -208 4 -221 26 -256 54 -88 260 -177 479 -208 43 -6 93
-13 112 -16 l34 -5 -22 33 c-70 104 -161 341 -161 417 0 14 -6 21 -19 21 -36
0 -196 51 -274 87 -58 27 -92 51 -129 92 l-50 55 4 -220z"/>
<path d="M271 1545 c-1 -117 4 -217 10 -240 31 -111 233 -208 534 -257 50 -8
165 -12 310 -12 188 1 251 5 345 22 252 46 412 118 467 210 22 35 23 47 23
257 0 219 0 220 -19 190 -73 -120 -302 -204 -649 -238 l-117 -12 -17 -35 c-12
-24 -18 -59 -18 -108 0 -97 -20 -93 -37 7 -6 40 -17 87 -23 105 l-11 33 -97 7
c-341 24 -612 123 -689 251 -9 16 -12 -21 -12 -180z"/>
<path d="M1690 526 l0 -227 117 3 c151 4 144 -7 141 230 -4 222 3 212 -148
216 l-110 4 0 -226z m164 138 c9 -24 7 -277 -3 -292 -5 -8 -21 -12 -37 -10
l-29 3 -3 145 c-1 79 0 150 2 157 8 19 63 16 70 -3z"/>
<path d="M2000 525 l0 -225 109 0 c85 0 113 3 125 15 12 13 15 48 15 203 0
103 -3 192 -7 198 -16 25 -56 34 -146 34 l-96 0 0 -225z m160 95 l0 -60 -35 0
-35 0 0 60 0 60 35 0 35 0 0 -60z m-2 -192 c-3 -63 -3 -63 -35 -66 l-33 -3 0
65 0 66 35 0 36 0 -3 -62z"/>
<path d="M40 475 l0 -175 40 0 40 0 0 128 c0 70 4 133 9 140 5 8 17 12 27 10
17 -3 19 -15 22 -141 l3 -137 44 0 45 0 0 141 c0 140 0 140 23 137 21 -3 22
-6 25 -140 l3 -138 44 0 45 0 0 150 c0 148 0 151 -26 176 -22 23 -31 25 -72
20 -53 -7 -45 -7 -174 -1 l-98 5 0 -175z"/>
<path d="M476 626 c-25 -24 -26 -29 -26 -153 0 -171 1 -173 119 -173 121 0
121 -1 121 171 0 172 0 173 -109 177 -75 4 -81 2 -105 -22z m122 -153 c-3
-108 -3 -108 -28 -108 -25 0 -25 0 -28 108 l-3 107 31 0 31 0 -3 -107z"/>
<path d="M740 474 l0 -174 40 0 40 0 0 128 c0 70 4 133 9 140 5 8 17 12 27 10
17 -3 19 -15 22 -141 l3 -137 45 0 45 0 -3 156 c-4 194 -3 193 -138 193 l-90
0 0 -175z"/>
<path d="M1030 630 c-18 -18 -20 -34 -20 -153 0 -123 2 -135 21 -153 15 -14
35 -19 70 -18 41 0 49 -3 49 -18 0 -16 -9 -18 -65 -18 l-65 0 0 -35 0 -35 90
0 c135 0 130 -9 130 245 l0 204 -95 0 c-82 0 -99 -3 -115 -19z m118 -153 l3
-97 -26 0 c-25 0 -25 0 -25 93 0 97 4 110 30 105 12 -3 16 -22 18 -101z"/>
<path d="M1316 626 c-25 -24 -26 -29 -26 -153 0 -171 1 -173 119 -173 121 0
121 -1 121 171 0 172 0 173 -109 177 -75 4 -81 2 -105 -22z m122 -153 c-3
-108 -3 -108 -28 -108 -25 0 -25 0 -28 108 l-3 107 31 0 31 0 -3 -107z"/>
</g>
</svg>
