<?xml version="1.0" standalone="no"?>
<!DOCTYPE svg PUBLIC "-//W3C//DTD SVG 20010904//EN"
 "http://www.w3.org/TR/2001/REC-SVG-20010904/DTD/svg10.dtd">
<svg version="1.0" xmlns="http://www.w3.org/2000/svg"
 width="800.000000pt" height="800.000000pt" viewBox="0 0 800.000000 800.000000"
 preserveAspectRatio="xMidYMid meet">

<g transform="translate(0.000000,800.000000) scale(0.100000,-0.100000)"
fill="#000000" stroke="none">
<path d="M5063 5323 c-10 -4 -13 -103 -13 -449 0 -397 -2 -445 -16 -451 -9 -3
-54 14 -105 41 -86 44 -91 45 -123 32 -60 -25 -561 -318 -578 -338 -16 -18
-18 -51 -18 -362 0 -258 3 -346 13 -359 21 -27 584 -347 612 -347 27 0 591
320 613 348 9 12 12 196 12 838 0 768 -1 823 -17 843 -15 17 -326 197 -358
206 -5 2 -16 1 -22 -2z m-116 -1349 l94 -55 -3 -122 -3 -121 -95 -57 c-52 -32
-100 -58 -106 -58 -5 -1 -56 26 -112 59 l-102 61 0 118 0 119 103 61 c56 33
108 58 116 55 7 -2 56 -29 108 -60z"/>
<path d="M1455 4514 c-125 -65 -564 -320 -577 -336 -17 -19 -18 -56 -18 -468
0 -498 -2 -487 62 -454 65 33 313 177 331 192 15 14 17 38 17 236 1 163 4 227
14 245 15 26 171 121 200 121 24 0 164 -77 194 -107 21 -22 22 -27 22 -243 0
-123 4 -229 10 -239 14 -27 363 -223 384 -215 14 6 16 48 16 464 0 423 -1 458
-17 472 -26 23 -592 348 -605 348 -2 0 -16 -7 -33 -16z"/>
<path d="M6195 4349 c-154 -89 -288 -168 -297 -177 -17 -14 -18 -44 -18 -362
0 -261 3 -350 13 -363 14 -19 560 -335 594 -343 16 -4 71 20 193 86 197 107
219 122 205 145 -5 8 -138 89 -295 178 l-285 163 -3 126 -3 126 97 56 c53 31
103 56 110 56 18 0 186 -98 202 -118 7 -10 12 -49 12 -109 0 -88 1 -93 21 -93
27 0 365 205 373 226 12 30 6 210 -6 226 -25 31 -573 338 -604 338 -20 0 -121
-53 -309 -161z"/>
<path d="M6474 3934 c-95 -50 -95 -50 -92 -122 l3 -66 57 -34 c56 -33 57 -33
90 -16 82 42 88 50 88 118 0 69 0 68 -71 109 -43 24 -47 25 -75 11z"/>
</g>
</svg>
