<?xml version="1.0" standalone="no"?>
<!DOCTYPE svg PUBLIC "-//W3C//DTD SVG 20010904//EN"
 "http://www.w3.org/TR/2001/REC-SVG-20010904/DTD/svg10.dtd">
<svg version="1.0" xmlns="http://www.w3.org/2000/svg"
 width="360.000000pt" height="360.000000pt" viewBox="0 0 360.000000 360.000000"
 preserveAspectRatio="xMidYMid meet">

<g transform="translate(0.000000,360.000000) scale(0.100000,-0.100000)"
fill="#000000" stroke="none">
<path d="M1589 3405 c-423 -58 -801 -275 -1065 -612 -373 -475 -447 -1126
-189 -1678 181 -389 523 -700 921 -838 373 -129 726 -128 1101 4 346 122 662
391 852 723 316 555 269 1262 -117 1771 -68 89 -206 229 -297 300 -340 266
-784 387 -1206 330z m-267 -662 l-4 -43 41 0 41 0 0 45 0 45 45 0 45 0 0 -135
0 -135 -45 0 -45 0 0 43 0 43 -37 -1 c-38 -1 -38 -1 -38 -43 l0 -42 -47 0 -48
0 0 136 0 135 47 -3 48 -3 -3 -42z m453 -3 c0 -45 0 -45 -37 -48 l-38 -3 0
-85 0 -84 -51 0 -50 0 3 85 3 85 -37 0 -38 0 0 50 0 51 123 -3 122 -3 0 -45z
m142 25 c52 -75 46 -73 77 -21 25 44 29 46 71 46 l44 0 3 -135 3 -135 -47 0
-47 0 -3 58 -3 57 -26 -43 -26 -43 -31 48 -32 48 0 -62 0 -63 -45 0 -45 0 0
128 c0 71 3 132 7 135 3 4 23 7 44 7 29 0 42 -6 56 -25z m331 -67 l3 -88 59 0
60 0 0 -45 0 -45 -110 0 -110 0 0 128 c0 71 3 132 7 136 4 4 25 6 48 4 l40 -3
3 -87z m247 -350 c-7 -70 -37 -402 -80 -903 -20 -225 -38 -424 -41 -441 l-4
-32 -183 -50 c-100 -28 -229 -64 -286 -80 l-104 -28 -280 78 c-155 43 -283 81
-285 83 -2 2 -10 71 -18 152 -7 81 -18 200 -23 263 -25 274 -42 460 -61 675
-11 127 -22 254 -26 283 l-5 52 700 0 701 0 -5 -52z"/>
<path d="M1367 2068 c15 -164 43 -470 43 -478 0 -6 118 -11 303 -12 l302 -3
-9 -112 -8 -111 -99 -27 -99 -27 -99 27 -99 27 -6 69 -7 69 -85 0 -86 0 7 -77
c4 -43 10 -104 14 -137 l6 -59 178 -48 179 -48 176 48 c164 45 177 50 179 72
1 13 9 121 18 239 8 118 18 227 20 243 l5 27 -314 0 -314 0 -6 28 c-3 15 -8
55 -11 90 l-7 62 335 0 334 0 7 61 c3 34 6 75 6 90 l0 29 -434 0 -434 0 5 -42z"/>
</g>
</svg>
