<?xml version="1.0" standalone="no"?>
<!DOCTYPE svg PUBLIC "-//W3C//DTD SVG 20010904//EN"
 "http://www.w3.org/TR/2001/REC-SVG-20010904/DTD/svg10.dtd">
<svg version="1.0" xmlns="http://www.w3.org/2000/svg"
 width="158.000000pt" height="184.000000pt" viewBox="0 0 158.000000 184.000000"
 preserveAspectRatio="xMidYMid meet">

<g transform="translate(0.000000,184.000000) scale(0.100000,-0.100000)"
fill="#000000" stroke="none">
<path d="M662 1705 c-169 -38 -339 -172 -415 -326 -165 -337 -10 -731 341
-866 89 -34 264 -44 362 -19 215 54 383 215 450 431 27 88 30 231 6 324 -53
205 -217 379 -416 442 -85 27 -242 34 -328 14z m313 -105 c171 -64 300 -201
341 -360 59 -228 -33 -464 -230 -592 -84 -54 -170 -78 -282 -79 -109 0 -155
11 -249 59 -310 162 -380 573 -142 828 72 77 136 119 230 150 94 32 239 29
332 -6z"/>
<path d="M857 1301 c-97 -81 -183 -153 -190 -160 -9 -9 8 -11 82 -9 l93 3 104
158 c57 86 100 157 96 157 -4 -1 -87 -67 -185 -149z"/>
<path d="M751 1043 c-57 -80 -202 -306 -190 -297 48 36 389 317 389 320 0 2
-40 4 -90 4 -86 0 -90 -1 -109 -27z"/>
<path d="M1250 309 c0 -14 5 -19 17 -17 26 5 29 38 4 38 -15 0 -21 -6 -21 -21z"/>
<path d="M710 205 c0 -108 1 -115 20 -115 15 0 20 7 20 29 0 44 15 46 40 6 15
-24 29 -35 46 -35 13 0 24 2 24 5 0 2 -14 25 -32 50 l-32 45 27 28 c32 34 34
42 7 42 -11 0 -34 -15 -50 -32 l-29 -33 -1 63 c0 55 -2 62 -20 62 -19 0 -20
-7 -20 -115z"/>
<path d="M1060 280 c0 -11 -4 -20 -10 -20 -5 0 -10 -7 -10 -15 0 -8 5 -15 10
-15 6 0 10 -24 10 -54 0 -61 16 -86 56 -86 27 0 33 24 9 34 -11 4 -15 20 -15
56 0 38 4 50 15 50 8 0 15 7 15 15 0 8 -7 15 -15 15 -8 0 -15 9 -15 20 0 15
-7 20 -25 20 -18 0 -25 -5 -25 -20z"/>
<path d="M185 236 c-23 -35 -6 -61 50 -75 29 -7 45 -16 42 -24 -5 -16 -46 -22
-60 -8 -13 13 -47 14 -47 2 0 -18 44 -41 76 -41 46 0 79 30 70 63 -5 21 -15
29 -51 38 -26 7 -45 17 -45 25 0 16 41 19 56 4 5 -5 15 -6 23 0 27 16 -6 40
-55 40 -35 0 -47 -5 -59 -24z"/>
<path d="M361 234 c-46 -59 -10 -144 62 -144 47 0 77 34 77 88 0 55 -26 82
-79 82 -31 0 -44 -6 -60 -26z m87 -16 c17 -17 15 -73 -3 -88 -20 -17 -54 -3
-61 26 -13 52 31 95 64 62z"/>
<path d="M548 243 c-25 -28 -30 -60 -18 -98 13 -40 35 -55 79 -55 30 0 71 29
71 50 0 15 -31 12 -51 -6 -27 -24 -59 -3 -59 39 0 18 5 38 12 45 17 17 47 15
54 -3 8 -19 44 -20 44 -2 0 43 -101 65 -132 30z"/>
<path d="M897 247 c-38 -27 -38 -114 0 -143 26 -20 87 -17 106 4 10 10 17 22
17 25 0 11 -29 8 -50 -5 -23 -15 -53 -2 -58 26 -3 13 6 16 58 16 l62 0 -7 28
c-3 15 -14 35 -22 45 -19 20 -81 23 -106 4z m82 -30 c15 -19 4 -27 -36 -27
-31 0 -44 16 -26 33 11 12 50 8 62 -6z"/>
<path d="M1250 175 c0 -78 2 -85 20 -85 18 0 20 7 20 85 0 78 -2 85 -20 85
-18 0 -20 -7 -20 -85z"/>
<path d="M1347 247 c-38 -27 -38 -114 0 -143 29 -22 81 -17 108 11 53 52 18
145 -54 145 -20 0 -45 -6 -54 -13z m84 -41 c23 -50 -19 -106 -56 -76 -18 15
-20 71 -3 88 20 20 48 14 59 -12z"/>
<path d="M1174 125 c-7 -18 3 -35 21 -35 18 0 26 25 12 39 -15 15 -27 14 -33
-4z"/>
</g>
</svg>
